<svg width="857" height="606" viewBox="0 0 857 606" fill="none" xmlns="http://www.w3.org/2000/svg">
<g clip-path="url(#clip0)">
<path d="M505.5 606.463H231.5C227.125 606.457 222.932 604.717 219.838 601.624C216.745 598.531 215.005 594.337 215 589.963V392.962C215.005 388.587 216.745 384.394 219.838 381.3C222.931 378.207 227.125 376.467 231.5 376.462H505.5C509.875 376.467 514.069 378.207 517.162 381.3C520.255 384.394 521.995 388.588 522 392.962V589.963C521.995 594.337 520.255 598.531 517.162 601.624C514.069 604.717 509.875 606.457 505.5 606.463V606.463Z" fill="#E1E7F5"/>
<path d="M840.5 339.462H566.5C562.125 339.457 557.932 337.717 554.838 334.624C551.745 331.531 550.005 327.337 550 322.962V125.962C550.005 121.587 551.745 117.393 554.838 114.3C557.931 111.207 562.125 109.467 566.5 109.462H840.5C844.875 109.467 849.069 111.207 852.162 114.3C855.255 117.393 856.995 121.587 857 125.962V322.962C856.995 327.337 855.255 331.531 852.162 334.624C849.069 337.717 844.875 339.457 840.5 339.462V339.462Z" fill="#E1E7F5"/>
<path d="M236.565 593.309H500.435C502.557 593.309 504.592 592.466 506.092 590.966C507.593 589.466 508.435 587.431 508.435 585.309V397.615C508.435 395.493 507.593 393.458 506.092 391.958C504.592 390.458 502.557 389.615 500.435 389.615H236.565C234.443 389.615 232.408 390.458 230.908 391.958C229.408 393.458 228.565 395.493 228.565 397.615V585.309C228.565 587.431 229.408 589.466 230.908 590.966C232.408 592.466 234.443 593.309 236.565 593.309Z" fill="white"/>
<path d="M571.565 326.309H835.435C837.557 326.309 839.592 325.466 841.092 323.966C842.593 322.466 843.435 320.431 843.435 318.309V130.615C843.435 128.493 842.593 126.458 841.092 124.958C839.592 123.458 837.557 122.615 835.435 122.615H571.565C569.443 122.615 567.408 123.458 565.908 124.958C564.408 126.458 563.565 128.493 563.565 130.615V318.309C563.565 320.431 564.408 322.466 565.908 323.966C567.408 325.466 569.443 326.309 571.565 326.309Z" fill="white"/>
<path d="M290.5 303.145H16.5C12.1254 303.14 7.93148 301.4 4.8382 298.307C1.74492 295.214 0.00494149 291.02 0 286.645V89.645C0.00493885 85.2705 1.74492 81.0765 4.8382 77.9832C7.93148 74.8899 12.1254 73.15 16.5 73.145H290.5C294.875 73.15 299.069 74.8899 302.162 77.9832C305.255 81.0765 306.995 85.2705 307 89.645V286.645C306.995 291.02 305.255 295.214 302.162 298.307C299.069 301.4 294.875 303.14 290.5 303.145V303.145Z" fill="#E1E7F5"/>
<path d="M21.5647 289.992H285.435C287.557 289.992 289.592 289.149 291.092 287.649C292.592 286.149 293.435 284.114 293.435 281.992V94.2976C293.435 92.1759 292.592 90.1411 291.092 88.6408C289.592 87.1405 287.557 86.2976 285.435 86.2976H21.5647C19.443 86.2976 17.4081 87.1405 15.9078 88.6408C14.4075 90.1411 13.5647 92.1759 13.5647 94.2976V281.992C13.5647 284.114 14.4075 286.149 15.9078 287.649C17.4081 289.149 19.443 289.992 21.5647 289.992Z" fill="white"/>
<path d="M468.982 447.935H300.432C299.641 447.935 298.858 448.091 298.128 448.394C297.398 448.696 296.734 449.139 296.175 449.698C295.616 450.257 295.173 450.921 294.87 451.651C294.568 452.382 294.412 453.164 294.412 453.955C294.412 454.746 294.568 455.528 294.87 456.259C295.173 456.989 295.616 457.653 296.175 458.212C296.734 458.771 297.398 459.214 298.128 459.516C298.858 459.819 299.641 459.975 300.432 459.975H468.982C470.579 459.975 472.11 459.34 473.239 458.212C474.368 457.083 475.002 455.552 475.002 453.955C475.002 452.358 474.368 450.827 473.239 449.698C472.11 448.57 470.579 447.935 468.982 447.935V447.935Z" fill="#E1E7F5"/>
<path d="M803.982 180.935H635.432C634.641 180.935 633.858 181.091 633.128 181.394C632.398 181.696 631.734 182.139 631.175 182.698C630.616 183.257 630.173 183.921 629.87 184.651C629.568 185.382 629.412 186.164 629.412 186.955C629.412 187.746 629.568 188.528 629.87 189.259C630.173 189.989 630.616 190.653 631.175 191.212C631.734 191.771 632.398 192.214 633.128 192.516C633.858 192.819 634.641 192.975 635.432 192.975H803.982C805.579 192.975 807.11 192.34 808.239 191.212C809.368 190.083 810.002 188.552 810.002 186.955C810.002 185.358 809.368 183.827 808.239 182.698C807.11 181.57 805.579 180.935 803.982 180.935V180.935Z" fill="#E1E7F5"/>
<path d="M300.432 484.979C299.641 484.979 298.858 485.135 298.128 485.438C297.398 485.74 296.734 486.184 296.175 486.742C295.616 487.301 295.173 487.965 294.87 488.695C294.568 489.426 294.412 490.209 294.412 490.999C294.412 491.79 294.568 492.572 294.87 493.303C295.173 494.033 295.616 494.697 296.175 495.256C296.734 495.815 297.398 496.258 298.128 496.56C298.858 496.863 299.641 497.019 300.432 497.019H468.982C470.579 497.019 472.11 496.385 473.239 495.256C474.368 494.127 475.002 492.596 475.002 490.999C475.002 489.403 474.368 487.871 473.239 486.742C472.11 485.614 470.579 484.979 468.982 484.979H300.432Z" fill="#E1E7F5"/>
<path d="M635.432 217.979C634.641 217.979 633.858 218.135 633.128 218.438C632.398 218.74 631.734 219.184 631.175 219.743C630.616 220.302 630.173 220.965 629.87 221.696C629.568 222.426 629.412 223.209 629.412 223.999C629.412 224.79 629.568 225.572 629.87 226.303C630.173 227.033 630.616 227.697 631.175 228.256C631.734 228.815 632.398 229.258 633.128 229.561C633.858 229.863 634.641 230.019 635.432 230.019H803.982C805.579 230.019 807.11 229.385 808.239 228.256C809.368 227.127 810.002 225.596 810.002 223.999C810.002 222.403 809.368 220.872 808.239 219.743C807.11 218.614 805.579 217.979 803.982 217.979H635.432Z" fill="#E1E7F5"/>
<path d="M300.432 522.024C298.835 522.024 297.304 522.658 296.175 523.787C295.046 524.916 294.412 526.447 294.412 528.043C294.412 529.64 295.046 531.171 296.175 532.3C297.304 533.429 298.835 534.063 300.432 534.063H468.982C470.579 534.063 472.11 533.429 473.239 532.3C474.368 531.171 475.002 529.64 475.002 528.043C475.002 526.447 474.368 524.916 473.239 523.787C472.11 522.658 470.579 522.024 468.982 522.024H300.432Z" fill="#E1E7F5"/>
<path d="M635.432 255.023C633.835 255.023 632.304 255.658 631.175 256.787C630.046 257.915 629.412 259.447 629.412 261.043C629.412 262.64 630.046 264.171 631.175 265.3C632.304 266.429 633.835 267.063 635.432 267.063H803.982C805.579 267.063 807.11 266.429 808.239 265.3C809.368 264.171 810.002 262.64 810.002 261.043C810.002 259.447 809.368 257.915 808.239 256.787C807.11 255.658 805.579 255.023 803.982 255.023H635.432Z" fill="#E1E7F5"/>
<path d="M268.481 461.827C272.573 461.827 275.89 458.51 275.89 454.418C275.89 450.326 272.573 447.009 268.481 447.009C264.389 447.009 261.072 450.326 261.072 454.418C261.072 458.51 264.389 461.827 268.481 461.827Z" fill="#09203F"/>
<path d="M603.481 194.827C607.573 194.827 610.89 191.51 610.89 187.418C610.89 183.326 607.573 180.009 603.481 180.009C599.389 180.009 596.072 183.326 596.072 187.418C596.072 191.51 599.389 194.827 603.481 194.827Z" fill="#09203F"/>
<path d="M268.481 498.871C272.573 498.871 275.89 495.554 275.89 491.462C275.89 487.37 272.573 484.053 268.481 484.053C264.389 484.053 261.072 487.37 261.072 491.462C261.072 495.554 264.389 498.871 268.481 498.871Z" fill="#E1E7F5"/>
<path d="M603.481 231.871C607.573 231.871 610.89 228.554 610.89 224.462C610.89 220.37 607.573 217.053 603.481 217.053C599.389 217.053 596.072 220.37 596.072 224.462C596.072 228.554 599.389 231.871 603.481 231.871Z" fill="#E1E7F5"/>
<path d="M268.481 535.915C272.573 535.915 275.89 532.598 275.89 528.506C275.89 524.414 272.573 521.097 268.481 521.097C264.389 521.097 261.072 524.414 261.072 528.506C261.072 532.598 264.389 535.915 268.481 535.915Z" fill="#E1E7F5"/>
<path d="M603.481 268.915C607.573 268.915 610.89 265.598 610.89 261.506C610.89 257.414 607.573 254.097 603.481 254.097C599.389 254.097 596.072 257.414 596.072 261.506C596.072 265.598 599.389 268.915 603.481 268.915Z" fill="#E1E7F5"/>
<path d="M401.84 453.955C401.84 454.745 401.684 455.528 401.382 456.259C401.079 456.989 400.636 457.652 400.077 458.211C399.518 458.77 398.854 459.214 398.124 459.516C397.393 459.819 396.611 459.975 395.82 459.975H300.648C299.161 459.996 297.717 459.48 296.58 458.521C295.444 457.562 294.692 456.224 294.464 454.755C294.352 453.905 294.422 453.04 294.67 452.219C294.919 451.398 295.339 450.64 295.904 449.994C296.469 449.349 297.165 448.831 297.946 448.476C298.726 448.121 299.574 447.937 300.432 447.935H395.82C397.417 447.935 398.948 448.569 400.077 449.698C401.206 450.827 401.84 452.358 401.84 453.955V453.955Z" fill="#09203F"/>
<path d="M736.84 186.955C736.84 187.745 736.684 188.528 736.382 189.258C736.079 189.989 735.636 190.652 735.077 191.211C734.518 191.77 733.854 192.214 733.124 192.516C732.393 192.819 731.611 192.974 730.82 192.974H635.648C634.161 192.996 632.717 192.48 631.58 191.521C630.444 190.562 629.692 189.224 629.464 187.755C629.352 186.904 629.422 186.04 629.67 185.219C629.919 184.398 630.339 183.64 630.904 182.994C631.469 182.349 632.165 181.831 632.946 181.476C633.726 181.121 634.574 180.937 635.432 180.935H730.82C732.417 180.935 733.948 181.569 735.077 182.698C736.206 183.827 736.84 185.358 736.84 186.955V186.955Z" fill="#09203F"/>
<path d="M368.5 351.157C381.798 351.157 392.579 340.377 392.579 327.079C392.579 313.78 381.798 303 368.5 303C355.202 303 344.421 313.78 344.421 327.079C344.421 340.377 355.202 351.157 368.5 351.157Z" fill="#E1E7F5"/>
<path d="M703.5 84.1573C716.798 84.1573 727.579 73.377 727.579 60.0787C727.579 46.7804 716.798 36 703.5 36C690.202 36 679.421 46.7804 679.421 60.0787C679.421 73.377 690.202 84.1573 703.5 84.1573Z" fill="#E1E7F5"/>
<path d="M380.384 329.007C381.449 322.444 376.992 316.26 370.429 315.195C363.865 314.13 357.681 318.587 356.616 325.15C355.551 331.714 360.008 337.898 366.572 338.963C373.135 340.028 379.319 335.571 380.384 329.007Z" fill="white"/>
<path d="M715.384 62.0072C716.449 55.444 711.992 49.26 705.429 48.1949C698.865 47.1298 692.681 51.587 691.616 58.1503C690.551 64.7136 695.008 70.8976 701.572 71.9627C708.135 73.0277 714.319 68.5705 715.384 62.0072Z" fill="white"/>
<path d="M41.0708 182.425C39.4886 182.425 37.9712 183.054 36.8525 184.172C35.7337 185.291 35.1052 186.808 35.1052 188.391C35.1052 189.973 35.7337 191.49 36.8525 192.609C37.9712 193.728 39.4886 194.356 41.0708 194.356H265.929C267.511 194.356 269.029 193.728 270.148 192.609C271.266 191.49 271.895 189.973 271.895 188.391C271.895 186.808 271.266 185.291 270.148 184.172C269.029 183.054 267.511 182.425 265.929 182.425H41.0708Z" fill="#E1E7F5"/>
<path d="M41.0708 219.136C39.4886 219.136 37.9712 219.765 36.8525 220.884C35.7337 222.003 35.1052 223.52 35.1052 225.102C35.1052 226.684 35.7337 228.202 36.8525 229.32C37.9712 230.439 39.4886 231.068 41.0708 231.068H265.929C267.511 231.068 269.029 230.439 270.148 229.32C271.266 228.202 271.895 226.684 271.895 225.102C271.895 223.52 271.266 222.003 270.148 220.884C269.029 219.765 267.511 219.136 265.929 219.136H41.0708Z" fill="#E1E7F5"/>
<path d="M141.569 257.684C139.987 257.684 138.469 258.312 137.35 259.431C136.232 260.55 135.603 262.067 135.603 263.649C135.603 265.232 136.232 266.749 137.35 267.868C138.469 268.987 139.987 269.615 141.569 269.615H165.431C167.013 269.615 168.531 268.987 169.65 267.868C170.768 266.749 171.397 265.232 171.397 263.649C171.397 262.067 170.768 260.55 169.65 259.431C168.531 258.312 167.013 257.684 165.431 257.684H141.569Z" fill="#09203F"/>
<path d="M121.524 106.675C121.038 106.675 120.571 106.869 120.227 107.213C119.883 107.557 119.689 108.023 119.689 108.51V155.106C119.689 155.593 119.883 156.06 120.227 156.404C120.571 156.748 121.038 156.941 121.524 156.942H185.476C185.962 156.941 186.429 156.748 186.773 156.404C187.117 156.06 187.311 155.593 187.311 155.106V108.51C187.311 108.023 187.117 107.557 186.773 107.213C186.429 106.869 185.962 106.675 185.476 106.675L121.524 106.675Z" fill="#09203F"/>
<path d="M153.5 136.751C159.076 136.751 163.596 132.231 163.596 126.655C163.596 121.079 159.076 116.559 153.5 116.559C147.924 116.559 143.404 121.079 143.404 126.655C143.404 132.231 147.924 136.751 153.5 136.751Z" fill="white"/>
<path d="M170.02 152.353C170.024 153.949 169.646 155.522 168.919 156.942H138.081C137.295 155.403 136.918 153.688 136.985 151.961C137.052 150.234 137.561 148.553 138.464 147.079C139.366 145.606 140.632 144.388 142.14 143.544C143.648 142.7 145.347 142.257 147.075 142.257H159.925C162.601 142.256 165.168 143.317 167.061 145.209C168.954 147.1 170.019 149.666 170.02 152.342V152.353Z" fill="white"/>
<path d="M153.5 136.751C159.076 136.751 163.596 132.231 163.596 126.655C163.596 121.079 159.076 116.559 153.5 116.559C147.924 116.559 143.404 121.079 143.404 126.655C143.404 132.231 147.924 136.751 153.5 136.751Z" fill="white"/>
<path d="M170.02 152.353C170.024 153.949 169.646 155.522 168.919 156.942H138.081C137.295 155.403 136.918 153.688 136.985 151.961C137.052 150.234 137.561 148.553 138.464 147.079C139.366 145.606 140.632 144.388 142.14 143.544C143.648 142.7 145.347 142.257 147.075 142.257H159.925C162.601 142.256 165.168 143.317 167.061 145.209C168.954 147.1 170.019 149.666 170.02 152.342V152.353Z" fill="white"/>
<path d="M153.5 47.7251C166.679 47.7251 177.363 37.0414 177.363 23.8625C177.363 10.6836 166.679 0 153.5 0C140.321 0 129.637 10.6836 129.637 23.8625C129.637 37.0414 140.321 47.7251 153.5 47.7251Z" fill="#E1E7F5"/>
<path d="M153.5 35.7937C160.089 35.7937 165.431 30.4519 165.431 23.8624C165.431 17.273 160.089 11.9312 153.5 11.9312C146.911 11.9312 141.569 17.273 141.569 23.8624C141.569 30.4519 146.911 35.7937 153.5 35.7937Z" fill="#09203F"/>
</g>
<defs>
<clipPath id="clip0">
<rect width="857" height="606" fill="white"/>
</clipPath>
</defs>
</svg>
