<?xml version="1.0" standalone="no"?>
<!DOCTYPE svg PUBLIC "-//W3C//DTD SVG 20010904//EN"
 "http://www.w3.org/TR/2001/REC-SVG-20010904/DTD/svg10.dtd">
<svg version="1.0" xmlns="http://www.w3.org/2000/svg"
 width="3188.000000pt" height="850.000000pt" viewBox="0 0 3188.000000 850.000000"
 preserveAspectRatio="xMidYMid meet">

<g transform="translate(0.000000,850.000000) scale(0.100000,-0.100000)"
fill="#000000" stroke="none">
<path d="M6120 7878 c-18 -13 -43 -36 -54 -51 -20 -27 -21 -40 -21 -290 0
-261 0 -262 24 -296 13 -18 42 -42 65 -52 38 -17 73 -19 471 -19 427 0 431 0
475 23 30 14 53 36 68 62 22 39 22 46 20 292 -3 280 -3 280 -78 331 l-33 22
-452 0 -452 0 -33 -22z"/>
<path d="M30680 7544 c-153 -40 -298 -157 -363 -294 -135 -285 -21 -616 258
-750 174 -84 361 -77 526 20 317 186 371 619 111 879 -136 135 -350 193 -532
145z m239 -79 c225 -54 371 -236 371 -465 0 -188 -101 -344 -276 -427 -94 -45
-210 -55 -313 -29 -230 59 -380 283 -351 521 21 167 137 317 290 376 107 41
180 47 279 24z"/>
<path d="M30607 7303 c-4 -3 -7 -141 -7 -305 l0 -298 45 0 45 0 0 85 0 85 55
0 55 0 62 -85 62 -85 54 0 54 0 -38 53 c-21 28 -51 70 -68 91 -29 37 -29 40
-12 50 78 46 117 110 117 192 0 103 -58 180 -157 210 -48 14 -255 20 -267 7z
m263 -101 c40 -20 80 -74 80 -109 0 -41 -28 -92 -62 -113 -26 -16 -50 -20
-115 -20 l-83 0 0 130 0 130 73 0 c49 0 83 -6 107 -18z"/>
<path d="M9675 6931 c-60 -10 -144 -27 -185 -39 -245 -71 -282 -82 -320 -98
-19 -8 -43 -19 -52 -24 -10 -6 -23 -10 -29 -10 -21 0 -292 -138 -363 -184 -38
-25 -72 -46 -77 -46 -4 0 -9 -3 -11 -7 -1 -5 -25 -24 -53 -42 -27 -19 -52 -37
-55 -41 -3 -3 -36 -30 -75 -61 -88 -70 -318 -303 -384 -389 -53 -68 -188 -267
-212 -311 -25 -46 -121 -243 -131 -269 -6 -14 -16 -38 -24 -55 -16 -36 -56
-158 -77 -235 -62 -224 -76 -324 -81 -590 -8 -395 -6 -4234 2 -4242 5 -5 289
-7 633 -6 l624 3 5 970 c3 640 8 969 15 967 6 -2 71 -33 145 -69 148 -72 139
-69 260 -110 126 -44 177 -59 260 -76 41 -9 100 -22 130 -28 76 -17 671 -24
781 -10 129 17 308 54 338 71 11 5 28 10 37 10 10 0 56 14 103 31 48 17 95 34
106 38 76 28 379 189 470 250 453 306 784 723 971 1224 37 98 43 115 54 157 7
25 18 65 25 90 20 71 43 186 60 297 20 138 21 506 0 623 -8 47 -15 100 -15
119 0 19 -6 57 -14 85 -8 28 -19 74 -25 101 -25 110 -95 327 -117 362 -8 12
-14 27 -14 33 0 22 -160 335 -179 350 -3 3 -30 41 -59 86 -29 44 -60 89 -70
100 -9 10 -56 64 -104 119 -47 55 -101 116 -120 135 -99 105 -346 299 -488
386 -58 35 -233 124 -285 145 -11 4 -40 17 -65 27 -141 61 -430 142 -593 166
-152 23 -589 20 -742 -3z m606 -1231 c101 -10 124 -14 239 -47 64 -18 206 -85
270 -127 114 -75 252 -198 313 -280 12 -15 34 -42 48 -60 44 -52 143 -238 181
-341 33 -86 47 -143 70 -270 14 -81 13 -368 -1 -430 -7 -27 -16 -68 -21 -90
-23 -111 -94 -262 -177 -375 -90 -123 -258 -280 -371 -347 -160 -95 -240 -128
-390 -159 -220 -46 -443 -38 -662 23 -66 19 -75 22 -171 66 -300 137 -562 430
-662 742 -46 141 -55 187 -67 325 -11 115 -10 153 4 258 9 68 20 132 26 142 5
10 10 27 10 37 0 18 46 147 77 213 76 165 237 357 403 482 108 81 264 160 380
191 105 28 157 38 241 46 122 12 146 12 260 1z"/>
<path d="M6060 6931 l-135 -6 0 -2520 0 -2520 669 -3 c486 -1 673 1 682 9 20
17 21 4996 1 5023 -12 17 -48 18 -548 21 -293 1 -595 0 -669 -4z"/>
<path d="M380 6906 c0 -13 7 -37 14 -53 8 -15 33 -75 56 -133 23 -58 47 -118
55 -135 7 -16 27 -66 45 -110 17 -44 35 -89 40 -100 5 -11 23 -56 41 -100 17
-44 38 -96 46 -115 20 -49 27 -64 63 -155 41 -100 59 -144 70 -170 5 -11 23
-56 40 -100 18 -44 38 -93 45 -110 8 -16 34 -82 60 -145 25 -63 50 -124 55
-135 4 -11 22 -56 40 -100 17 -44 38 -96 46 -115 27 -62 32 -73 79 -190 25
-63 50 -124 55 -135 4 -11 22 -56 40 -100 18 -44 36 -89 41 -100 4 -11 22 -56
39 -100 18 -44 38 -93 45 -110 8 -16 21 -48 30 -70 9 -22 20 -49 25 -60 4 -11
22 -56 40 -100 41 -100 59 -144 70 -170 5 -11 23 -56 40 -100 17 -44 37 -93
44 -110 8 -16 26 -61 41 -100 15 -38 33 -83 40 -100 7 -16 27 -66 45 -110 43
-107 60 -146 70 -170 5 -11 23 -56 40 -100 18 -44 36 -89 40 -100 5 -11 18
-42 30 -70 12 -27 25 -59 30 -70 4 -11 22 -56 40 -100 17 -44 35 -89 40 -100
5 -11 23 -56 40 -100 18 -44 38 -93 45 -110 8 -16 39 -93 70 -170 32 -77 63
-153 70 -170 6 -16 24 -61 39 -100 15 -38 34 -83 41 -100 7 -16 22 -52 33 -80
l21 -50 631 0 631 0 14 25 c8 14 35 79 60 145 26 66 54 136 62 155 20 49 28
69 46 115 32 84 78 201 87 220 5 11 30 74 55 140 26 66 51 129 56 140 4 11 18
45 29 75 11 30 25 64 29 75 5 11 23 56 41 100 17 44 35 89 39 100 5 11 15 38
24 60 30 80 55 143 87 220 4 11 18 45 30 75 11 30 25 64 29 75 5 11 16 40 26
65 10 25 21 54 26 65 5 11 18 45 29 75 11 30 24 64 29 75 5 11 16 40 26 65 10
25 21 54 26 65 4 11 22 56 39 100 17 44 37 94 45 110 7 17 21 53 31 80 10 28
20 55 24 60 4 6 15 33 25 60 9 28 23 64 30 80 7 17 20 50 30 75 9 25 21 54 26
65 4 11 22 56 39 100 33 84 86 216 101 250 4 11 29 74 54 140 25 66 50 129 55
140 5 11 19 45 30 75 11 30 25 64 29 75 5 11 23 56 40 100 18 44 36 88 41 97
6 10 10 23 10 30 0 7 6 24 13 38 7 14 21 48 31 75 10 28 24 64 31 80 8 17 28
66 45 110 17 44 35 89 39 100 5 11 17 40 26 65 10 25 23 59 30 75 7 17 21 53
30 80 10 28 21 55 25 60 4 6 14 33 24 60 10 28 24 64 31 80 7 17 21 50 30 75
10 25 21 54 25 65 33 88 43 112 52 129 6 11 14 31 18 45 5 14 18 51 29 81 12
30 21 56 21 57 0 2 -315 3 -700 3 l-699 0 -14 -27 c-8 -16 -24 -57 -36 -93
-13 -36 -27 -74 -31 -85 -10 -25 -67 -185 -87 -245 -8 -25 -19 -54 -23 -65 -5
-11 -18 -47 -29 -80 -11 -33 -29 -85 -41 -115 -12 -30 -30 -82 -41 -115 -11
-33 -25 -69 -30 -80 -5 -11 -13 -33 -18 -50 -5 -16 -23 -68 -40 -115 -62 -167
-83 -225 -92 -255 -5 -16 -13 -39 -18 -50 -5 -11 -19 -47 -30 -80 -18 -52 -42
-120 -95 -265 -7 -19 -23 -64 -35 -100 -12 -36 -26 -74 -31 -85 -5 -11 -13
-33 -18 -50 -6 -16 -24 -68 -41 -115 -18 -47 -41 -112 -52 -145 -11 -33 -25
-69 -30 -80 -5 -11 -18 -47 -28 -80 -11 -33 -29 -85 -41 -115 -32 -84 -71
-192 -81 -225 -5 -16 -13 -39 -18 -50 -5 -11 -19 -47 -30 -80 -19 -56 -63
-178 -97 -270 -9 -22 -19 -53 -23 -70 -5 -16 -14 -43 -21 -60 -24 -58 -29 -70
-35 -92 -13 -47 -31 -26 -65 78 -12 35 -25 73 -30 84 -10 21 -29 73 -59 165
-11 30 -23 66 -29 80 -23 57 -43 111 -82 220 -23 63 -48 131 -55 150 -7 19
-32 87 -55 150 -23 63 -48 132 -56 153 -37 97 -44 117 -67 182 -59 169 -89
251 -97 270 -8 18 -46 122 -70 195 -5 14 -18 50 -30 80 -24 64 -57 152 -110
300 -20 58 -42 118 -49 133 -6 16 -11 34 -11 42 0 8 -4 16 -9 20 -5 3 -13 20
-17 37 -3 18 -10 39 -15 48 -5 8 -18 42 -29 75 -10 33 -33 98 -51 145 -17 47
-42 114 -55 150 -13 36 -33 90 -44 120 -38 101 -72 195 -82 230 -6 19 -13 40
-17 45 -4 6 -15 35 -25 65 -10 30 -25 70 -32 88 l-15 32 -719 0 -720 0 0 -24z"/>
<path d="M20035 6669 c-88 -3 -190 -11 -227 -17 -115 -20 -370 -92 -455 -128
-17 -8 -34 -14 -37 -14 -16 0 -190 -87 -295 -147 -330 -188 -582 -426 -810
-765 -28 -42 -51 -79 -51 -82 0 -3 -18 -35 -40 -71 -22 -36 -40 -67 -40 -70 0
-2 -18 -43 -40 -90 -22 -47 -40 -92 -40 -99 0 -6 -4 -16 -9 -21 -21 -24 -71
-195 -132 -455 -8 -35 -14 -159 -17 -347 -4 -302 3 -391 45 -578 73 -329 226
-662 423 -923 80 -104 264 -297 375 -389 291 -244 626 -410 1000 -495 186 -42
250 -47 529 -48 316 0 384 7 606 65 64 17 137 40 175 55 11 4 43 16 70 25 81
27 357 170 453 234 120 80 285 211 331 264 39 43 41 31 43 -310 l3 -328 360 0
360 0 3 1216 c2 1073 0 1218 -13 1229 -10 8 -15 31 -15 69 0 53 -28 259 -49
366 -20 97 -86 311 -103 330 -4 5 -8 17 -8 27 0 10 -4 26 -10 36 -5 9 -32 64
-59 122 -86 180 -163 303 -299 475 -62 78 -283 302 -352 357 -46 36 -239 168
-246 168 -2 0 -32 17 -66 38 -59 36 -150 82 -258 130 -125 55 -464 152 -535
152 -14 0 -45 4 -68 10 -54 12 -299 17 -502 9z m500 -749 c103 -19 175 -36
210 -50 11 -4 40 -16 65 -25 46 -18 126 -53 190 -84 106 -50 350 -234 433
-327 237 -265 375 -545 429 -869 17 -106 17 -449 0 -535 -57 -282 -159 -513
-319 -723 -82 -107 -261 -278 -363 -346 -103 -68 -341 -191 -369 -191 -9 0
-21 -4 -26 -8 -6 -5 -39 -17 -75 -27 -36 -10 -84 -24 -108 -31 -23 -8 -59 -14
-80 -14 -20 0 -53 -5 -72 -10 -19 -6 -120 -11 -225 -11 -180 0 -284 11 -380
41 -16 5 -61 18 -100 30 -474 145 -872 526 -1053 1011 -18 47 -32 91 -32 98 0
7 -6 33 -14 59 -32 105 -41 199 -41 412 0 212 2 231 42 400 30 130 118 337
187 439 20 29 36 55 36 58 0 26 226 280 310 348 39 32 173 128 200 144 153 89
369 173 540 211 145 31 439 31 615 0z"/>
<path d="M15075 6565 c-5 -1 -50 -8 -100 -15 -172 -23 -461 -102 -600 -165
-298 -135 -478 -253 -684 -450 -130 -125 -307 -347 -378 -475 -67 -122 -163
-322 -163 -341 0 -5 -4 -17 -9 -27 -14 -24 -67 -189 -79 -242 -6 -25 -17 -74
-26 -110 -32 -139 -41 -256 -41 -520 0 -300 11 -398 71 -635 24 -95 71 -238
98 -300 74 -169 168 -344 228 -425 10 -14 46 -63 80 -110 90 -125 300 -330
448 -436 69 -50 132 -93 140 -97 8 -4 31 -17 50 -28 36 -22 196 -104 260 -133
151 -69 415 -141 600 -165 216 -27 290 -30 481 -21 234 12 352 30 514 76 425
121 699 275 993 559 211 203 366 433 493 732 50 117 81 217 77 246 l-3 22
-330 3 c-181 1 -339 0 -350 -2 -13 -3 -31 -27 -49 -63 -92 -190 -278 -419
-451 -555 -164 -130 -396 -242 -580 -282 -38 -8 -95 -20 -125 -27 -30 -7 -156
-14 -279 -17 -323 -6 -458 22 -728 149 -46 22 -85 39 -88 39 -9 0 -196 129
-240 166 -130 108 -218 208 -316 359 -95 146 -128 214 -182 375 -54 164 -72
256 -88 446 -23 294 26 589 142 842 16 35 29 65 29 68 0 2 18 33 40 69 22 36
40 68 40 71 0 7 106 150 144 193 223 256 508 428 836 505 162 37 189 40 402
39 198 -1 225 -3 330 -28 137 -32 217 -55 240 -66 10 -5 22 -9 27 -9 18 0 199
-88 255 -124 31 -20 59 -36 62 -36 29 0 250 -205 346 -320 47 -57 161 -236
192 -302 l17 -38 349 0 c192 0 351 4 354 9 7 11 -19 94 -58 184 -9 21 -16 42
-16 48 0 24 -125 266 -192 369 -104 162 -157 228 -283 355 -210 211 -443 366
-710 474 -11 5 -36 15 -55 23 -77 32 -267 87 -370 107 -168 32 -277 41 -512
40 -134 0 -247 -2 -253 -4z"/>
<path d="M24440 6565 c-8 -2 -51 -9 -95 -15 -91 -13 -215 -38 -260 -51 -187
-55 -216 -66 -372 -141 -144 -69 -272 -164 -401 -298 -115 -119 -214 -302
-265 -490 -55 -201 -45 -487 24 -705 30 -95 89 -228 108 -245 4 -3 18 -23 32
-45 47 -71 161 -181 249 -240 72 -48 80 -52 185 -104 99 -49 144 -68 240 -97
28 -9 66 -22 85 -29 32 -12 106 -33 190 -55 19 -5 76 -16 125 -25 50 -9 104
-20 120 -25 17 -4 80 -16 140 -25 150 -22 259 -41 440 -76 33 -6 78 -14 100
-18 68 -13 191 -52 300 -96 17 -7 46 -18 65 -25 72 -28 155 -86 228 -160 25
-26 92 -124 92 -136 0 -3 6 -20 14 -37 18 -42 36 -151 36 -218 -2 -252 -180
-476 -465 -583 -114 -43 -191 -66 -220 -66 -12 0 -35 -5 -51 -10 -16 -6 -95
-16 -177 -23 -231 -20 -524 11 -682 74 -282 111 -443 259 -543 499 -21 50 -42
139 -42 178 0 75 10 73 -368 70 l-337 -3 -3 -29 c-5 -37 25 -221 50 -316 12
-41 23 -86 26 -100 2 -14 8 -29 12 -35 3 -5 15 -32 25 -60 38 -106 121 -241
229 -374 40 -50 128 -131 212 -196 46 -36 86 -65 89 -65 3 0 33 -18 68 -39
188 -115 423 -194 722 -243 123 -20 586 -17 750 6 71 10 133 20 137 22 4 3 35
9 68 15 57 9 298 84 370 116 64 28 115 53 165 83 28 16 57 33 65 37 25 11 81
54 176 135 209 177 333 388 406 688 20 85 17 482 -5 581 -65 295 -198 502
-436 678 -118 87 -311 179 -476 226 -33 9 -79 23 -102 31 -61 20 -195 51 -298
69 -49 8 -126 22 -170 30 -44 8 -96 17 -115 20 -19 4 -82 13 -140 22 -153 22
-196 29 -280 46 -86 18 -168 39 -297 78 -261 77 -428 226 -463 411 -35 181 5
336 117 466 164 187 475 292 863 292 411 -1 727 -116 885 -323 84 -110 120
-194 151 -349 l17 -88 328 0 329 0 0 69 c0 134 -55 351 -127 500 -134 279
-332 480 -608 619 -115 57 -187 85 -340 131 -175 52 -347 71 -632 70 -136 -1
-255 -3 -263 -4z"/>
<path d="M28795 6559 c-27 -5 -79 -13 -115 -18 -93 -12 -377 -89 -445 -120
-11 -5 -40 -18 -65 -29 -87 -38 -155 -72 -205 -101 -27 -17 -69 -40 -92 -52
-24 -12 -43 -26 -43 -31 0 -4 -5 -8 -11 -8 -12 0 -140 -93 -224 -163 -72 -60
-181 -171 -250 -253 -27 -32 -52 -61 -55 -64 -10 -8 -90 -119 -90 -123 0 -3
-18 -31 -39 -63 -21 -33 -57 -94 -80 -137 -23 -43 -46 -86 -51 -95 -21 -39
-70 -154 -70 -166 0 -6 -4 -16 -9 -21 -5 -6 -16 -37 -26 -70 -9 -33 -23 -78
-31 -100 -20 -61 -61 -248 -79 -363 -19 -124 -22 -554 -5 -672 30 -201 44
-266 99 -465 11 -40 49 -140 71 -190 95 -212 108 -237 196 -371 204 -314 462
-558 759 -721 89 -49 263 -133 275 -133 6 0 18 -4 28 -9 75 -41 344 -111 502
-130 221 -28 279 -30 455 -21 285 16 404 38 675 128 103 34 136 47 255 103
443 210 808 586 1059 1091 33 65 56 124 53 133 -6 13 -52 15 -370 15 l-363 0
-32 -45 c-18 -25 -32 -48 -32 -51 0 -16 -149 -193 -220 -260 -128 -122 -296
-231 -427 -280 -26 -9 -52 -21 -58 -24 -33 -23 -226 -77 -320 -90 -33 -5 -96
-14 -140 -20 -157 -24 -484 6 -675 62 -275 81 -490 211 -688 418 -87 90 -206
265 -260 382 -39 86 -97 258 -120 363 -14 60 -26 154 -21 157 2 2 868 5 1924
8 l1920 5 9 100 c12 141 -13 516 -43 645 -5 25 -17 79 -26 120 -9 41 -20 86
-25 100 -4 14 -16 52 -25 85 -16 54 -27 83 -55 150 -4 11 -18 45 -30 75 -134
330 -378 650 -670 876 -165 128 -253 180 -475 278 -134 60 -235 91 -425 130
-41 9 -97 21 -125 27 -63 14 -602 21 -670 8z m519 -664 c204 -35 254 -47 376
-91 36 -13 68 -24 71 -24 4 0 44 -21 90 -46 309 -170 513 -382 654 -680 26
-55 50 -106 54 -114 4 -8 22 -62 40 -120 17 -58 36 -119 41 -136 6 -17 10 -40
10 -52 l0 -22 -1559 0 c-1193 0 -1560 3 -1563 12 -8 24 57 265 82 303 4 6 15
32 24 58 17 45 67 140 114 217 12 19 25 42 29 50 4 8 12 20 17 26 6 7 42 49
81 95 158 190 365 336 615 432 238 91 591 131 824 92z"/>
</g>
</svg>
